<svg xmlns="http://www.w3.org/2000/svg" version="1.1" xmlns:xlink="http://www.w3.org/1999/xlink" xmlns:svgjs="http://svgjs.dev/svgjs" width="1000" height="623" viewBox="0 0 1000 623"><g transform="matrix(1,0,0,1,-0.6060606060606233,0.2522267206477409)"><svg viewBox="0 0 396 247" data-background-color="#ffffff" preserveAspectRatio="xMidYMid meet" height="623" width="1000" xmlns="http://www.w3.org/2000/svg" xmlns:xlink="http://www.w3.org/1999/xlink"><g id="tight-bounds" transform="matrix(1,0,0,1,0.2400000000000091,-0.09999999999999432)"><svg viewBox="0 0 395.52 247.2" height="247.2" width="395.52"><g><svg></svg></g><g><svg viewBox="0 0 395.52 247.2" height="247.2" width="395.52"><g transform="matrix(1,0,0,1,75.54432,104.29517655689213)"><svg viewBox="0 0 244.43135999999998 38.609646886215735" height="38.609646886215735" width="244.43135999999998"><g><svg viewBox="0 0 244.43135999999998 38.609646886215735" height="38.609646886215735" width="244.43135999999998"><g><svg viewBox="0 0 244.43135999999998 38.609646886215735" height="38.609646886215735" width="244.43135999999998"><g><svg viewBox="0 0 244.43135999999998 38.609646886215735" height="38.609646886215735" width="244.43135999999998"><g id="textblocktransform"><svg viewBox="0 0 244.43135999999998 38.609646886215735" height="38.609646886215735" width="244.43135999999998" id="textblock"><g><svg viewBox="0 0 244.43135999999998 38.609646886215735" height="38.609646886215735" width="244.43135999999998"><g transform="matrix(1,0,0,1,0,0)"><svg width="244.43135999999998" viewBox="3.0999999046325684 -39.54999923706055 253.52999877929688 40.04999923706055" height="38.609646886215735" data-palette-color="url(#6794c0b2-0334-417b-a683-60eb6279796f)"></svg></g></svg></g></svg></g></svg></g></svg></g></svg></g></svg></g></svg></g><defs></defs><mask id="517d2528-59cb-4971-9b05-cde5c658cc0b"><g id="SvgjsG1633"><svg viewBox="0 0 395.52 247.2" height="247.2" width="395.52"><g><svg></svg></g><g><svg viewBox="0 0 395.52 247.2" height="247.2" width="395.52"><g transform="matrix(1,0,0,1,75.54432,104.29517655689213)"><svg viewBox="0 0 244.43135999999998 38.609646886215735" height="38.609646886215735" width="244.43135999999998"><g><svg viewBox="0 0 244.43135999999998 38.609646886215735" height="38.609646886215735" width="244.43135999999998"><g><svg viewBox="0 0 244.43135999999998 38.609646886215735" height="38.609646886215735" width="244.43135999999998"><g><svg viewBox="0 0 244.43135999999998 38.609646886215735" height="38.609646886215735" width="244.43135999999998"><g id="SvgjsG1632"><svg viewBox="0 0 244.43135999999998 38.609646886215735" height="38.609646886215735" width="244.43135999999998" id="SvgjsSvg1631"><g><svg viewBox="0 0 244.43135999999998 38.609646886215735" height="38.609646886215735" width="244.43135999999998"><g transform="matrix(1,0,0,1,0,0)"><svg width="244.43135999999998" viewBox="3.0999999046325684 -39.54999923706055 253.52999877929688 40.04999923706055" height="38.609646886215735" data-palette-color="url(#6794c0b2-0334-417b-a683-60eb6279796f)"><path d="M22.55 0.5L22.55 0.5Q18.5 0.5 14.98-1.05 11.45-2.6 8.78-5.38 6.1-8.15 4.6-11.78 3.1-15.4 3.1-19.55L3.1-19.55Q3.1-23.65 4.58-27.28 6.05-30.9 8.72-33.65 11.4-36.4 14.93-37.98 18.45-39.55 22.55-39.55L22.55-39.55Q26.15-39.55 29.1-38.5 32.05-37.45 34.8-35.15L34.8-35.15Q35.25-34.8 35.33-34.33 35.4-33.85 35.2-33.43 35-33 34.6-32.8L34.6-32.8Q34.5-32.4 34.1-32.2 33.7-32 33.18-32.05 32.65-32.1 32.15-32.5L32.15-32.5Q30.2-34.2 27.9-35.02 25.6-35.85 22.55-35.85L22.55-35.85Q19.3-35.85 16.48-34.55 13.65-33.25 11.5-31 9.35-28.75 8.13-25.8 6.9-22.85 6.9-19.55L6.9-19.55Q6.9-16.15 8.13-13.2 9.35-10.25 11.5-8 13.65-5.75 16.48-4.48 19.3-3.2 22.55-3.2L22.55-3.2Q25.3-3.2 27.75-4.1 30.2-5 32.4-6.7L32.4-6.7Q33-7.2 33.68-7.1 34.35-7 34.85-6.5 35.35-6 35.35-5.2L35.35-5.2Q35.35-4.8 35.23-4.48 35.1-4.15 34.8-3.8L34.8-3.8Q32.25-1.45 29.1-0.48 25.95 0.5 22.55 0.5ZM53.5 0.25L53.5 0.25Q49.5 0.25 46.35-1.55 43.2-3.35 41.4-6.5 39.6-9.65 39.6-13.65L39.6-13.65Q39.6-17.7 41.4-20.85 43.2-24 46.35-25.8 49.5-27.6 53.5-27.6L53.5-27.6Q57.5-27.6 60.62-25.8 63.75-24 65.55-20.85 67.35-17.7 67.4-13.65L67.4-13.65Q67.4-9.65 65.57-6.5 63.75-3.35 60.62-1.55 57.5 0.25 53.5 0.25ZM53.5-3.25L53.5-3.25Q56.4-3.25 58.7-4.6 61-5.95 62.3-8.3 63.6-10.65 63.6-13.65L63.6-13.65Q63.6-16.65 62.3-19.03 61-21.4 58.7-22.75 56.4-24.1 53.5-24.1L53.5-24.1Q50.6-24.1 48.3-22.75 46-21.4 44.67-19.03 43.35-16.65 43.35-13.65L43.35-13.65Q43.35-10.65 44.67-8.3 46-5.95 48.3-4.6 50.6-3.25 53.5-3.25ZM98.35 0L98.35 0Q97.5 0 96.95-0.55 96.4-1.1 96.4-1.9L96.4-1.9 96.4-14.9Q96.4-18 95.22-20 94.05-22 92.02-23 90-24 87.45-24L87.45-24Q85-24 83.02-23.05 81.05-22.1 79.9-20.45 78.75-18.8 78.75-16.7L78.75-16.7 76-16.7Q76.1-19.85 77.7-22.33 79.3-24.8 81.95-26.23 84.6-27.65 87.85-27.65L87.85-27.65Q91.4-27.65 94.2-26.18 97-24.7 98.62-21.85 100.25-19 100.25-14.9L100.25-14.9 100.25-1.9Q100.25-1.1 99.7-0.55 99.15 0 98.35 0ZM76.85 0L76.85 0Q75.95 0 75.42-0.53 74.9-1.05 74.9-1.9L74.9-1.9 74.9-25.4Q74.9-26.3 75.42-26.83 75.95-27.35 76.85-27.35L76.85-27.35Q77.7-27.35 78.22-26.83 78.75-26.3 78.75-25.4L78.75-25.4 78.75-1.9Q78.75-1.05 78.22-0.53 77.7 0 76.85 0ZM116.59 0L116.59 0Q115.39 0 114.79-1.3L114.79-1.3 103.69-24.85Q103.39-25.5 103.64-26.15 103.89-26.8 104.64-27.15L104.64-27.15Q105.34-27.5 105.99-27.25 106.64-27 106.99-26.35L106.99-26.35 117.64-3.3 115.59-3.3 126.09-26.35Q126.39-27.05 127.12-27.28 127.84-27.5 128.54-27.2L128.54-27.2Q129.24-26.85 129.49-26.18 129.74-25.5 129.44-24.9L129.44-24.9 118.49-1.3Q117.89 0 116.59 0ZM146.34 0.25L146.34 0.25Q142.34 0.25 139.19-1.55 136.04-3.35 134.24-6.5 132.44-9.65 132.44-13.65L132.44-13.65Q132.44-17.7 134.24-20.85 136.04-24 139.19-25.8 142.34-27.6 146.34-27.6L146.34-27.6Q150.34-27.6 153.47-25.8 156.59-24 158.39-20.85 160.19-17.7 160.24-13.65L160.24-13.65Q160.24-9.65 158.42-6.5 156.59-3.35 153.47-1.55 150.34 0.25 146.34 0.25ZM146.34-3.25L146.34-3.25Q149.24-3.25 151.54-4.6 153.84-5.95 155.14-8.3 156.44-10.65 156.44-13.65L156.44-13.65Q156.44-16.65 155.14-19.03 153.84-21.4 151.54-22.75 149.24-24.1 146.34-24.1L146.34-24.1Q143.44-24.1 141.14-22.75 138.84-21.4 137.52-19.03 136.19-16.65 136.19-13.65L136.19-13.65Q136.19-10.65 137.52-8.3 138.84-5.95 141.14-4.6 143.44-3.25 146.34-3.25ZM183.19 0L170.44 0Q169.49 0 168.86-0.53 168.24-1.05 168.24-1.95L168.24-1.95 168.24-37.1Q168.24-37.95 168.79-38.5 169.34-39.05 170.19-39.05L170.19-39.05 182.34-39.05Q185.34-39.05 187.76-37.77 190.19-36.5 191.61-34.3 193.04-32.1 193.04-29.2L193.04-29.2Q193.04-26.5 191.59-24.4 190.14-22.3 187.79-21.2L187.79-21.2Q191.14-20.3 193.19-17.82 195.24-15.35 195.24-11.55L195.24-11.55Q195.24-8.15 193.69-5.55 192.14-2.95 189.41-1.48 186.69 0 183.19 0L183.19 0ZM172.14-19L172.14-3.75 183.19-3.75Q185.59-3.75 187.44-4.7 189.29-5.65 190.34-7.4 191.39-9.15 191.39-11.55L191.39-11.55Q191.39-13.8 190.34-15.48 189.29-17.15 187.44-18.07 185.59-19 183.19-19L183.19-19 172.14-19ZM172.14-35.3L172.14-22.75 182.34-22.75Q185.34-22.75 187.29-24.45 189.24-26.15 189.24-29.2L189.24-29.2Q189.24-32.2 187.29-33.75 185.34-35.3 182.34-35.3L182.34-35.3 172.14-35.3ZM214.39 0.3L214.39 0.3Q210.84 0.3 208.04-1.18 205.24-2.65 203.61-5.5 201.99-8.35 201.99-12.45L201.99-12.45 201.99-25.45Q201.99-26.25 202.54-26.8 203.09-27.35 203.89-27.35L203.89-27.35Q204.74-27.35 205.29-26.8 205.84-26.25 205.84-25.45L205.84-25.45 205.84-12.45Q205.84-9.35 207.01-7.35 208.19-5.35 210.21-4.35 212.24-3.35 214.79-3.35L214.79-3.35Q217.24-3.35 219.21-4.3 221.19-5.25 222.34-6.9 223.49-8.55 223.49-10.65L223.49-10.65 226.24-10.65Q226.09-7.5 224.51-5.03 222.94-2.55 220.29-1.13 217.64 0.3 214.39 0.3ZM225.39 0L225.39 0Q224.54 0 224.01-0.53 223.49-1.05 223.49-1.95L223.49-1.95 223.49-25.45Q223.49-26.3 224.01-26.83 224.54-27.35 225.39-27.35L225.39-27.35Q226.24-27.35 226.79-26.83 227.34-26.3 227.34-25.45L227.34-25.45 227.34-1.95Q227.34-1.05 226.79-0.53 226.24 0 225.39 0ZM245.88 0.25L245.88 0.25Q242.93 0.25 240.03-0.75 237.13-1.75 235.33-3.75L235.33-3.75Q234.78-4.35 234.88-5.1 234.98-5.85 235.63-6.4L235.63-6.4Q236.33-6.9 237.08-6.8 237.83-6.7 238.33-6.15L238.33-6.15Q239.53-4.75 241.51-4 243.48-3.25 245.88-3.25L245.88-3.25Q249.58-3.25 251.23-4.53 252.88-5.8 252.93-7.6L252.93-7.6Q252.93-9.4 251.23-10.58 249.53-11.75 245.63-12.4L245.63-12.4Q240.58-13.2 238.23-15.2 235.88-17.2 235.88-19.95L235.88-19.95Q235.88-22.5 237.23-24.2 238.58-25.9 240.83-26.75 243.08-27.6 245.78-27.6L245.78-27.6Q249.13-27.6 251.56-26.45 253.98-25.3 255.48-23.35L255.48-23.35Q255.98-22.7 255.88-22 255.78-21.3 255.08-20.85L255.08-20.85Q254.48-20.5 253.71-20.63 252.93-20.75 252.38-21.35L252.38-21.35Q251.13-22.8 249.48-23.48 247.83-24.15 245.68-24.15L245.68-24.15Q242.93-24.15 241.28-23.03 239.63-21.9 239.63-20.2L239.63-20.2Q239.63-19.05 240.26-18.2 240.88-17.35 242.41-16.7 243.93-16.05 246.68-15.6L246.68-15.6Q250.43-15 252.61-13.83 254.78-12.65 255.71-11.08 256.63-9.5 256.63-7.65L256.63-7.65Q256.63-5.3 255.26-3.53 253.88-1.75 251.46-0.75 249.03 0.25 245.88 0.25Z" opacity="1" transform="matrix(1,0,0,1,0,0)" fill="white" class="wordmark-text-0" id="SvgjsPath1630"></path></svg></g></svg></g></svg></g></svg></g></svg></g></svg></g></svg></g><path d="M182.495 98.295L182.495 35.715 6.724 35.715 6.724 211.485 182.495 211.485 182.495 148.905 179.013 148.905 179.013 208.004 10.206 208.004 10.206 39.196 179.013 39.196 179.013 98.295Z" fill="white" stroke="transparent"></path></svg></g><defs><mask></mask></defs></svg></g></mask><linearGradient x1="0" x2="1" y1="0.548" y2="0.55" id="6794c0b2-0334-417b-a683-60eb6279796f"><stop stop-color="#ff6cab" offset="0"></stop><stop stop-color="#7366ff" offset="1"></stop></linearGradient><rect width="395.5199890136719" height="247.1999969482422" fill="url(#6794c0b2-0334-417b-a683-60eb6279796f)" mask="url(#517d2528-59cb-4971-9b05-cde5c658cc0b)" data-fill-palette-color="primary"></rect></svg><rect width="395.52" height="247.2" fill="none" stroke="none" visibility="hidden"></rect></g></svg></g></svg>